<svg version="1.1" viewBox="0.0 0.0 960.0 540.0" fill="none" stroke="none" stroke-linecap="square" stroke-miterlimit="10" xmlns:xlink="http://www.w3.org/1999/xlink" xmlns="http://www.w3.org/2000/svg"><clipPath id="g23c882d33bf_1_810.0"><path d="m0 0l960.0 0l0 540.0l-960.0 0l0 -540.0z" clip-rule="nonzero"/></clipPath><g clip-path="url(#g23c882d33bf_1_810.0)"><path fill="#ffffff" d="m0 0l960.0 0l0 540.0l-960.0 0z" fill-rule="evenodd"/><path fill="#c9daf8" fill-opacity="0.3966" d="m86.69889 92.8855l74.614174 0l0 45.354324l-74.614174 0z" fill-rule="evenodd"/><path stroke="#595959" stroke-width="1.0" stroke-linejoin="round" stroke-linecap="butt" d="m86.69889 92.8855l74.614174 0l0 45.354324l-74.614174 0z" fill-rule="evenodd"/><path fill="#c9daf8" fill-opacity="0.3966" d="m86.69889 138.25317l74.614174 0l0 45.354324l-74.614174 0z" fill-rule="evenodd"/><path stroke="#595959" stroke-width="1.0" stroke-linejoin="round" stroke-linecap="butt" d="m86.69889 138.25317l74.614174 0l0 45.354324l-74.614174 0z" fill-rule="evenodd"/><path fill="#c9daf8" fill-opacity="0.3966" d="m86.508484 183.62085l74.61417 0l0 45.354324l-74.61417 0z" fill-rule="evenodd"/><path stroke="#595959" stroke-width="1.0" stroke-linejoin="round" stroke-linecap="butt" d="m86.508484 183.62085l74.61417 0l0 45.354324l-74.61417 0z" fill-rule="evenodd"/><path fill="#c9daf8" fill-opacity="0.3966" d="m86.508484 228.98853l74.61417 0l0 45.35434l-74.61417 0z" fill-rule="evenodd"/><path stroke="#595959" stroke-width="1.0" stroke-linejoin="round" stroke-linecap="butt" d="m86.508484 228.98853l74.61417 0l0 45.35434l-74.61417 0z" fill-rule="evenodd"/><path fill="#c9daf8" fill-opacity="0.3966" d="m86.69889 274.3562l74.614174 0l0 45.35434l-74.614174 0z" fill-rule="evenodd"/><path stroke="#595959" stroke-width="1.0" stroke-linejoin="round" stroke-linecap="butt" d="m86.69889 274.3562l74.614174 0l0 45.35434l-74.614174 0z" fill-rule="evenodd"/><path fill="#c9daf8" fill-opacity="0.3966" d="m86.69889 319.72388l74.614174 0l0 45.35434l-74.614174 0z" fill-rule="evenodd"/><path stroke="#595959" stroke-width="1.0" stroke-linejoin="round" stroke-linecap="butt" d="m86.69889 319.72388l74.614174 0l0 45.35434l-74.614174 0z" fill-rule="evenodd"/><path fill="#c9daf8" fill-opacity="0.3966" d="m161.49892 92.87589l74.61417 0l0 45.354332l-74.61417 0z" fill-rule="evenodd"/><path stroke="#595959" stroke-width="1.0" stroke-linejoin="round" stroke-linecap="butt" d="m161.49892 92.87589l74.61417 0l0 45.354332l-74.61417 0z" fill-rule="evenodd"/><path fill="#c9daf8" fill-opacity="0.3966" d="m161.49892 138.24356l74.61417 0l0 45.35434l-74.61417 0z" fill-rule="evenodd"/><path stroke="#595959" stroke-width="1.0" stroke-linejoin="round" stroke-linecap="butt" d="m161.49892 138.24356l74.61417 0l0 45.35434l-74.61417 0z" fill-rule="evenodd"/><path fill="#c9daf8" fill-opacity="0.3966" d="m161.3085 183.61124l74.61417 0l0 45.35434l-74.61417 0z" fill-rule="evenodd"/><path stroke="#595959" stroke-width="1.0" stroke-linejoin="round" stroke-linecap="butt" d="m161.3085 183.61124l74.61417 0l0 45.35434l-74.61417 0z" fill-rule="evenodd"/><path fill="#c9daf8" fill-opacity="0.3966" d="m161.3085 228.97891l74.61417 0l0 45.35434l-74.61417 0z" fill-rule="evenodd"/><path stroke="#595959" stroke-width="1.0" stroke-linejoin="round" stroke-linecap="butt" d="m161.3085 228.97891l74.61417 0l0 45.35434l-74.61417 0z" fill-rule="evenodd"/><path fill="#c9daf8" fill-opacity="0.3966" d="m161.49892 274.3466l74.61417 0l0 45.35434l-74.61417 0z" fill-rule="evenodd"/><path stroke="#595959" stroke-width="1.0" stroke-linejoin="round" stroke-linecap="butt" d="m161.49892 274.3466l74.61417 0l0 45.35434l-74.61417 0z" fill-rule="evenodd"/><path fill="#c9daf8" fill-opacity="0.3966" d="m161.49892 319.71426l74.61417 0l0 45.35434l-74.61417 0z" fill-rule="evenodd"/><path stroke="#595959" stroke-width="1.0" stroke-linejoin="round" stroke-linecap="butt" d="m161.49892 319.71426l74.61417 0l0 45.35434l-74.61417 0z" fill-rule="evenodd"/><path fill="#000000" fill-opacity="0.0" d="m83.00715 62.154854l81.6063 0l0 33.921265l-81.6063 0z" fill-rule="evenodd"/><path fill="#000000" d="m119.937256 75.29986l0 -1.21875l1.0625 0l0 1.21875l-1.0625 0zm0 7.375l0 -6.21875l1.0625 0l0 6.21875l-1.0625 0zm2.6660156 0l0 -6.21875l0.9375 0l0 0.875q0.6875 -1.015625 1.984375 -1.015625q0.5625 0 1.03125 0.203125q0.484375 0.203125 0.71875 0.53125q0.234375 0.328125 0.328125 0.765625q0.046875 0.296875 0.046875 1.03125l0 3.828125l-1.046875 0l0 -3.78125q0 -0.65625 -0.125 -0.96875q-0.125 -0.3125 -0.4375 -0.5q-0.3125 -0.203125 -0.734375 -0.203125q-0.671875 0 -1.171875 0.4375q-0.484375 0.421875 -0.484375 1.609375l0 3.40625l-1.046875 0z" fill-rule="nonzero"/><path fill="#000000" fill-opacity="0.0" d="m158.00188 62.154854l81.60631 0l0 33.921265l-81.60631 0z" fill-rule="evenodd"/><path fill="#000000" d="m190.87047 79.56548q0 -1.734375 0.953125 -2.5625q0.796875 -0.6875 1.953125 -0.6875q1.28125 0 2.09375 0.84375q0.828125 0.828125 0.828125 2.3125q0 1.203125 -0.359375 1.890625q-0.359375 0.6875 -1.0625 1.078125q-0.6875 0.375 -1.5 0.375q-1.296875 0 -2.109375 -0.828125q-0.796875 -0.84375 -0.796875 -2.421875zm1.078125 0q0 1.1875 0.515625 1.78125q0.53125 0.59375 1.3125 0.59375q0.796875 0 1.3125 -0.59375q0.515625 -0.59375 0.515625 -1.8125q0 -1.15625 -0.53125 -1.75q-0.515625 -0.59375 -1.296875 -0.59375q-0.78125 0 -1.3125 0.59375q-0.515625 0.578125 -0.515625 1.78125zm10.064453 3.109375l0 -0.921875q-0.734375 1.0625 -1.984375 1.0625q-0.546875 0 -1.03125 -0.203125q-0.46875 -0.21875 -0.703125 -0.53125q-0.234375 -0.328125 -0.328125 -0.796875q-0.0625 -0.296875 -0.0625 -0.984375l0 -3.84375l1.0625 0l0 3.453125q0 0.8125 0.0625 1.109375q0.09375 0.40625 0.40625 0.65625q0.328125 0.234375 0.8125 0.234375q0.46875 0 0.875 -0.234375q0.421875 -0.25 0.59375 -0.671875q0.1875 -0.421875 0.1875 -1.21875l0 -3.328125l1.046875 0l0 6.21875l-0.9375 0zm4.892578 -0.9375l0.15625 0.921875q-0.453125 0.09375 -0.796875 0.09375q-0.578125 0 -0.890625 -0.171875q-0.3125 -0.1875 -0.453125 -0.484375q-0.125 -0.296875 -0.125 -1.25l0 -3.578125l-0.765625 0l0 -0.8125l0.765625 0l0 -1.546875l1.046875 -0.625l0 2.171875l1.0625 0l0 0.8125l-1.0625 0l0 3.640625q0 0.453125 0.046875 0.578125q0.0625 0.125 0.1875 0.203125q0.125 0.078125 0.359375 0.078125q0.1875 0 0.46875 -0.03125z" fill-rule="nonzero"/><path fill="#000000" fill-opacity="0.0" d="m58.131233 99.2552l65.66929 0l0 30.708664l-65.66929 0z" fill-rule="evenodd"/><path fill="#000000" d="m67.52186 113.91833q0 -1.1875 0.234375 -1.90625q0.25 -0.71875 0.71875 -1.109375q0.484375 -0.390625 1.21875 -0.390625q0.546875 0 0.9375 0.21875q0.40625 0.21875 0.671875 0.625q0.265625 0.40625 0.40625 1.0q0.15625 0.578125 0.15625 1.5625q0 1.171875 -0.234375 1.90625q-0.234375 0.71875 -0.71875 1.109375q-0.484375 0.390625 -1.21875 0.390625q-0.96875 0 -1.515625 -0.6875q-0.65625 -0.828125 -0.65625 -2.71875zm0.84375 0q0 1.640625 0.375 2.1875q0.390625 0.546875 0.953125 0.546875q0.5625 0 0.953125 -0.546875q0.390625 -0.546875 0.390625 -2.1875q0 -1.640625 -0.390625 -2.1875q-0.390625 -0.546875 -0.953125 -0.546875q-0.578125 0 -0.90625 0.484375q-0.421875 0.609375 -0.421875 2.25z" fill-rule="nonzero"/><path fill="#000000" fill-opacity="0.0" d="m58.131233 144.6236l65.66929 0l0 30.708664l-65.66929 0z" fill-rule="evenodd"/><path fill="#000000" d="m70.59998 162.58359l-0.8125 0l0 -5.21875q-0.296875 0.28125 -0.78125 0.5625q-0.484375 0.28125 -0.859375 0.421875l0 -0.796875q0.6875 -0.328125 1.203125 -0.78125q0.515625 -0.453125 0.734375 -0.890625l0.515625 0l0 6.703125z" fill-rule="nonzero"/><path fill="#000000" fill-opacity="0.0" d="m58.131233 189.99518l65.66929 0l0 30.708664l-65.66929 0z" fill-rule="evenodd"/><path fill="#000000" d="m71.83436 207.17393l0 0.78125l-4.421875 0q-0.015625 -0.296875 0.09375 -0.5625q0.171875 -0.453125 0.53125 -0.890625q0.375 -0.4375 1.078125 -1.015625q1.09375 -0.890625 1.46875 -1.40625q0.390625 -0.53125 0.390625 -1.0q0 -0.484375 -0.359375 -0.8125q-0.34375 -0.34375 -0.890625 -0.34375q-0.59375 0 -0.953125 0.359375q-0.359375 0.359375 -0.359375 0.984375l-0.84375 -0.078125q0.09375 -0.953125 0.65625 -1.4375q0.5625 -0.5 1.515625 -0.5q0.953125 0 1.515625 0.53125q0.5625 0.53125 0.5625 1.328125q0 0.390625 -0.171875 0.78125q-0.15625 0.390625 -0.546875 0.828125q-0.375 0.421875 -1.25 1.15625q-0.734375 0.625 -0.953125 0.84375q-0.203125 0.21875 -0.34375 0.453125l3.28125 0z" fill-rule="nonzero"/><path fill="#000000" fill-opacity="0.0" d="m58.131233 235.36357l65.66929 0l0 30.708664l-65.66929 0z" fill-rule="evenodd"/><path fill="#000000" d="m67.52186 251.55794l0.828125 -0.109375q0.140625 0.703125 0.46875 1.015625q0.34375 0.296875 0.828125 0.296875q0.578125 0 0.96875 -0.390625q0.40625 -0.40625 0.40625 -1.0q0 -0.5625 -0.375 -0.921875q-0.359375 -0.375 -0.921875 -0.375q-0.234375 0 -0.578125 0.09375l0.078125 -0.71875q0.09375 0 0.140625 0q0.515625 0 0.9375 -0.265625q0.421875 -0.28125 0.421875 -0.84375q0 -0.453125 -0.3125 -0.75q-0.296875 -0.296875 -0.78125 -0.296875q-0.484375 0 -0.796875 0.3125q-0.3125 0.296875 -0.40625 0.890625l-0.828125 -0.140625q0.15625 -0.828125 0.6875 -1.28125q0.53125 -0.453125 1.328125 -0.453125q0.546875 0 1.0 0.234375q0.46875 0.234375 0.703125 0.640625q0.25 0.40625 0.25 0.859375q0 0.4375 -0.234375 0.796875q-0.234375 0.34375 -0.6875 0.5625q0.59375 0.125 0.921875 0.5625q0.328125 0.421875 0.328125 1.078125q0 0.875 -0.640625 1.484375q-0.640625 0.609375 -1.609375 0.609375q-0.875 0 -1.46875 -0.515625q-0.578125 -0.53125 -0.65625 -1.375z" fill-rule="nonzero"/><path fill="#000000" fill-opacity="0.0" d="m58.131233 280.74155l65.66929 0l0 30.70868l-65.66929 0z" fill-rule="evenodd"/><path fill="#000000" d="m70.14686 298.70157l0 -1.59375l-2.890625 0l0 -0.75l3.046875 -4.328125l0.65625 0l0 4.328125l0.90625 0l0 0.75l-0.90625 0l0 1.59375l-0.8125 0zm0 -2.34375l0 -3.015625l-2.09375 3.015625l2.09375 0z" fill-rule="nonzero"/><path fill="#000000" fill-opacity="0.0" d="m58.131233 326.10034l65.66929 0l0 30.70868l-65.66929 0z" fill-rule="evenodd"/><path fill="#000000" d="m67.52186 342.31033l0.859375 -0.078125q0.09375 0.640625 0.4375 0.953125q0.359375 0.3125 0.84375 0.3125q0.59375 0 1.0 -0.4375q0.40625 -0.453125 0.40625 -1.1875q0 -0.703125 -0.390625 -1.109375q-0.390625 -0.40625 -1.03125 -0.40625q-0.390625 0 -0.71875 0.1875q-0.3125 0.171875 -0.5 0.453125l-0.765625 -0.09375l0.640625 -3.4375l3.328125 0l0 0.796875l-2.671875 0l-0.359375 1.78125q0.609375 -0.40625 1.265625 -0.40625q0.875 0 1.46875 0.609375q0.609375 0.59375 0.609375 1.546875q0 0.90625 -0.53125 1.5625q-0.640625 0.8125 -1.75 0.8125q-0.90625 0 -1.484375 -0.5q-0.578125 -0.515625 -0.65625 -1.359375z" fill-rule="nonzero"/><path fill="#eeeeee" d="m435.191 328.89343l0 0c0 -18.134094 14.700562 -32.834656 32.834656 -32.834656l0 0c8.708282 0 17.059906 3.4593506 23.21759 9.617035c6.1576843 6.157715 9.617035 14.509308 9.617035 23.21762l0 0c0 18.134064 -14.700562 32.834625 -32.834625 32.834625l0 0c-18.134094 0 -32.834656 -14.700562 -32.834656 -32.834625z" fill-rule="evenodd"/><path stroke="#595959" stroke-width="1.0" stroke-linejoin="round" stroke-linecap="butt" d="m435.191 328.89343l0 0c0 -18.134094 14.700562 -32.834656 32.834656 -32.834656l0 0c8.708282 0 17.059906 3.4593506 23.21759 9.617035c6.1576843 6.157715 9.617035 14.509308 9.617035 23.21762l0 0c0 18.134064 -14.700562 32.834625 -32.834625 32.834625l0 0c-18.134094 0 -32.834656 -14.700562 -32.834656 -32.834625z" fill-rule="evenodd"/><path fill="#eeeeee" d="m436.843 100.95338l0 0c0 -18.134079 14.700562 -32.83465 32.834656 -32.83465l0 0c8.708282 0 17.059906 3.4593582 23.21759 9.617043c6.1576843 6.157692 9.617035 14.5093155 9.617035 23.217606l0 0c0 18.134071 -14.700562 32.83465 -32.834625 32.83465l0 0c-18.134094 0 -32.834656 -14.700577 -32.834656 -32.83465z" fill-rule="evenodd"/><path stroke="#595959" stroke-width="1.0" stroke-linejoin="round" stroke-linecap="butt" d="m436.843 100.95338l0 0c0 -18.134079 14.700562 -32.83465 32.834656 -32.83465l0 0c8.708282 0 17.059906 3.4593582 23.21759 9.617043c6.1576843 6.157692 9.617035 14.5093155 9.617035 23.217606l0 0c0 18.134071 -14.700562 32.83465 -32.834625 32.83465l0 0c-18.134094 0 -32.834656 -14.700577 -32.834656 -32.83465z" fill-rule="evenodd"/><path fill="#eeeeee" d="m663.3176 77.15346l0 0c0 -18.134071 14.700562 -32.834644 32.834656 -32.834644l0 0c8.708252 0 17.059875 3.4593544 23.21759 9.617046c6.157654 6.157692 9.617004 14.509308 9.617004 23.217598l0 0c0 18.134079 -14.700562 32.83465 -32.834595 32.83465l0 0c-18.134094 0 -32.834656 -14.700569 -32.834656 -32.83465z" fill-rule="evenodd"/><path stroke="#595959" stroke-width="1.0" stroke-linejoin="round" stroke-linecap="butt" d="m663.3176 77.15346l0 0c0 -18.134071 14.700562 -32.834644 32.834656 -32.834644l0 0c8.708252 0 17.059875 3.4593544 23.21759 9.617046c6.157654 6.157692 9.617004 14.509308 9.617004 23.217598l0 0c0 18.134079 -14.700562 32.83465 -32.834595 32.83465l0 0c-18.134094 0 -32.834656 -14.700569 -32.834656 -32.83465z" fill-rule="evenodd"/><path fill="#eeeeee" d="m755.7451 228.01431l0 0c0 -18.134079 14.700562 -32.83464 32.834656 -32.83464l0 0c8.708313 0 17.059937 3.4593506 23.21759 9.617035c6.157715 6.1576996 9.617065 14.509323 9.617065 23.217606l0 0c0 18.134079 -14.700562 32.834656 -32.834656 32.834656l0 0c-18.134094 0 -32.834656 -14.700577 -32.834656 -32.834656z" fill-rule="evenodd"/><path stroke="#595959" stroke-width="1.0" stroke-linejoin="round" stroke-linecap="butt" d="m755.7451 228.01431l0 0c0 -18.134079 14.700562 -32.83464 32.834656 -32.83464l0 0c8.708313 0 17.059937 3.4593506 23.21759 9.617035c6.157715 6.1576996 9.617065 14.509323 9.617065 23.217606l0 0c0 18.134079 -14.700562 32.834656 -32.834656 32.834656l0 0c-18.134094 0 -32.834656 -14.700577 -32.834656 -32.834656z" fill-rule="evenodd"/><path fill="#eeeeee" d="m571.6777 206.27615l0 0c0 -18.134064 14.700562 -32.83464 32.834656 -32.83464l0 0c8.708252 0 17.059875 3.4593506 23.21759 9.61705c6.157715 6.1576843 9.617065 14.509308 9.617065 23.21759l0 0c0 18.134079 -14.700623 32.834656 -32.834656 32.834656l0 0c-18.134094 0 -32.834656 -14.700577 -32.834656 -32.834656z" fill-rule="evenodd"/><path stroke="#a4c2f4" stroke-width="1.0" stroke-linejoin="round" stroke-linecap="butt" d="m571.6777 206.27615l0 0c0 -18.134064 14.700562 -32.83464 32.834656 -32.83464l0 0c8.708252 0 17.059875 3.4593506 23.21759 9.61705c6.157715 6.1576843 9.617065 14.509308 9.617065 23.21759l0 0c0 18.134079 -14.700623 32.834656 -32.834656 32.834656l0 0c-18.134094 0 -32.834656 -14.700577 -32.834656 -32.834656z" fill-rule="evenodd"/><path fill="#000000" fill-opacity="0.0" d="m492.89523 124.170975l88.409454 58.897644" fill-rule="evenodd"/><path stroke="#6aa84f" stroke-width="1.0" stroke-linejoin="round" stroke-linecap="butt" d="m492.89523 124.170975l83.416046 55.571075" fill-rule="evenodd"/><path fill="#6aa84f" stroke="#6aa84f" stroke-width="1.0" stroke-linecap="butt" d="m575.3955 181.11668l4.692505 1.1414032l-2.860962 -3.8906555z" fill-rule="evenodd"/><path fill="#000000" fill-opacity="0.0" d="m672.93146 100.38687l-45.165344 82.67717" fill-rule="evenodd"/><path stroke="#6aa84f" stroke-width="1.0" stroke-linejoin="round" stroke-linecap="butt" d="m672.93146 100.38687l-42.28888 77.41165" fill-rule="evenodd"/><path fill="#6aa84f" stroke="#6aa84f" stroke-width="1.0" stroke-linecap="butt" d="m629.19305 177.00664l-0.7260742 4.7744446l3.625183 -3.1907196z" fill-rule="evenodd"/><path fill="#000000" fill-opacity="0.0" d="m719.3699 100.37106l45.984253 104.44095" fill-rule="evenodd"/><path stroke="#595959" stroke-width="1.0" stroke-linejoin="round" stroke-linecap="butt" d="m719.3698 100.37106l43.56653 98.949646" fill-rule="evenodd"/><path fill="#595959" stroke="#595959" stroke-width="1.0" stroke-linecap="butt" d="m761.4246 199.98628l3.340393 3.4877625l-0.3170166 -4.818924z" fill-rule="evenodd"/><path fill="#000000" fill-opacity="0.0" d="m637.35144 206.28203l118.39368 21.732285" fill-rule="evenodd"/><path stroke="#e69138" stroke-width="1.0" stroke-linejoin="round" stroke-linecap="butt" d="m637.35144 206.28203l112.49231 20.649033" fill-rule="evenodd"/><path fill="#e69138" stroke="#e69138" stroke-width="1.0" stroke-linecap="butt" d="m749.54553 228.55565l4.76178 -0.80526733l-4.165344 -2.4439087z" fill-rule="evenodd"/><path fill="#000000" fill-opacity="0.0" d="m765.33276 251.19264l-264.47247 77.70079" fill-rule="evenodd"/><path stroke="#595959" stroke-width="1.0" stroke-linejoin="round" stroke-linecap="butt" d="m765.33276 251.19263l-258.71576 76.00949" fill-rule="evenodd"/><path fill="#595959" stroke="#595959" stroke-width="1.0" stroke-linecap="butt" d="m506.15143 325.61737l-3.8884888 2.8639526l4.8196716 0.305542z" fill-rule="evenodd"/><path fill="#d9d9d9" d="m530.0325 180.2799l20.440918 0l0 58.86615l-20.440918 0z" fill-rule="evenodd"/><path stroke="#a4c2f4" stroke-width="1.0" stroke-linejoin="round" stroke-linecap="butt" d="m530.0325 180.2799l20.440918 0l0 58.86615l-20.440918 0z" fill-rule="evenodd"/><path fill="#d9d9d9" d="m403.74582 71.537926l20.440918 0l0 58.866142l-20.440918 0z" fill-rule="evenodd"/><path stroke="#595959" stroke-width="1.0" stroke-linejoin="round" stroke-linecap="butt" d="m403.74582 71.537926l20.440918 0l0 58.866142l-20.440918 0z" fill-rule="evenodd"/><path fill="#d9d9d9" d="m622.9018 47.73801l20.440918 0l0 58.866146l-20.440918 0z" fill-rule="evenodd"/><path stroke="#595959" stroke-width="1.0" stroke-linejoin="round" stroke-linecap="butt" d="m622.9018 47.73801l20.440918 0l0 58.866146l-20.440918 0z" fill-rule="evenodd"/><path fill="#d9d9d9" d="m403.74582 299.47797l20.440918 0l0 58.86615l-20.440918 0z" fill-rule="evenodd"/><path stroke="#595959" stroke-width="1.0" stroke-linejoin="round" stroke-linecap="butt" d="m403.74582 299.47797l20.440918 0l0 58.86615l-20.440918 0z" fill-rule="evenodd"/><path fill="#d9d9d9" d="m842.6148 198.59886l20.440979 0l0 58.866135l-20.440979 0z" fill-rule="evenodd"/><path stroke="#595959" stroke-width="1.0" stroke-linejoin="round" stroke-linecap="butt" d="m842.6148 198.59886l20.440979 0l0 58.866135l-20.440979 0z" fill-rule="evenodd"/><path fill="#6aa84f" d="m90.96494 190.1117l65.66929 0l0 32.346466l-65.66929 0z" fill-rule="evenodd"/><path stroke="#595959" stroke-width="1.0" stroke-linejoin="round" stroke-linecap="butt" d="m90.96494 190.1117l65.66929 0l0 32.346466l-65.66929 0z" fill-rule="evenodd"/><path fill="#e69138" d="m165.76495 144.7337l65.6693 0l0 32.346466l-65.6693 0z" fill-rule="evenodd"/><path stroke="#595959" stroke-width="1.0" stroke-linejoin="round" stroke-linecap="butt" d="m165.76495 144.7337l65.6693 0l0 32.346466l-65.6693 0z" fill-rule="evenodd"/><path fill="#000000" fill-opacity="0.0" d="m198.59961 144.7337c0 -3.6528015 85.409454 -11.750488 170.81888 -7.305603c85.409454 4.4448853 170.81894 21.432327 170.81894 42.86467" fill-rule="evenodd"/><path stroke="#595959" stroke-width="1.0" stroke-linejoin="round" stroke-linecap="butt" d="m198.5996 144.7337c0 -3.6528015 85.40944 -11.750488 170.81892 -7.305603c42.704712 2.2224426 85.409454 7.5805206 117.43799 15.062042c16.014282 3.7407532 29.359497 8.012375 38.70117 12.688309c4.6708374 2.3379822 8.340759 4.7770386 10.843018 7.3013763c1.2510986 1.2621613 2.210266 2.5456238 2.8566895 3.8484344c0.08081055 0.16285706 0.15667725 0.3260193 0.22766113 0.48947144l0.05053711 0.12059021" fill-rule="evenodd"/><path fill="#595959" stroke="#595959" stroke-width="1.0" stroke-linecap="butt" d="m539.5356 176.93832l-1.3310547 -0.8704529l1.7335205 2.793991l0.46795654 -3.254593z" fill-rule="evenodd"/><path fill="#000000" fill-opacity="0.0" d="m123.79958 222.45816c0 19.77475 104.11024 37.46289 208.22046 39.5495c104.11026 2.0866394 208.22049 -11.428284 208.22049 -22.856583" fill-rule="evenodd"/><path stroke="#595959" stroke-width="1.0" stroke-linejoin="round" stroke-linecap="butt" d="m123.79959 222.45815c0 19.77478 104.11023 37.462906 208.22046 39.549515c52.055115 1.0433044 104.11023 -1.8137512 143.15158 -6.3601837c19.52066 -2.2732391 35.787903 -4.968796 47.174927 -7.8103333c5.6935425 -1.4207458 10.167053 -2.878006 13.217102 -4.337204c0.76257324 -0.36479187 1.4361572 -0.72972107 2.017517 -1.094223c0.14538574 -0.09112549 0.28503418 -0.18223572 0.4187622 -0.27330017c0.06689453 -0.045516968 0.13238525 -0.091033936 0.1963501 -0.1365509l0.0647583 -0.047164917" fill-rule="evenodd"/><path fill="#595959" stroke="#595959" stroke-width="1.0" stroke-linecap="butt" d="m538.2611 241.9487l0.26849365 1.5675659l0.86657715 -3.171814l-2.7026367 1.8727264z" fill-rule="evenodd"/><path fill="#000000" fill-opacity="0.0" d="m351.97104 101.35025l65.66928 0l0 42.015747l-65.66928 0z" fill-rule="evenodd"/><path fill="#000000" d="m365.6429 126.114l0 -3.671875l-3.640625 0l0 -1.515625l3.640625 0l0 -3.640625l1.546875 0l0 3.640625l3.640625 0l0 1.515625l-3.640625 0l0 3.671875l-1.546875 0z" fill-rule="nonzero"/><path fill="#000000" fill-opacity="0.0" d="m364.15277 185.8185l65.66928 0l0 42.015747l-65.66928 0z" fill-rule="evenodd"/><path fill="#000000" d="m377.82465 210.58224l0 -3.671875l-3.640625 0l0 -1.515625l3.640625 0l0 -3.640625l1.546875 0l0 3.640625l3.640625 0l0 1.515625l-3.640625 0l0 3.671875l-1.546875 0z" fill-rule="nonzero"/></g></svg>